HIERARCHY
ROOT Hips
{
	OFFSET 0.000000 0.000000 0.000000 
	CHANNELS 6 Xposition Yposition Zposition Zrotation Yrotation Xrotation
	JOINT LeftUpLeg
	{
		OFFSET 1.363060 -1.794630 0.839290 
		CHANNELS 3 Zrotation Yrotation Xrotation
		JOINT LeftLeg
		{
			OFFSET 2.448110 -6.726130 0.000000 
			CHANNELS 3 Zrotation Yrotation Xrotation
			JOINT LeftFoot
			{
				OFFSET 2.562200 -7.039590 0.000000 
				CHANNELS 3 Zrotation Yrotation Xrotation
				JOINT LeftToeBase
				{
					OFFSET 0.157640 -0.433110 2.322550 
					CHANNELS 3 Zrotation Yrotation Xrotation
					End Site
					{
						OFFSET 0.000000 0.000000 0.000000 
					}
				}
			}
		}
	}
	JOINT RightUpLeg
	{
		OFFSET -1.305520 -1.794630 0.839290 
		CHANNELS 3 Zrotation Yrotation Xrotation
		JOINT RightLeg
		{
			OFFSET -2.542530 -6.985550 0.000000 
			CHANNELS 3 Zrotation Yrotation Xrotation
			JOINT RightFoot
			{
				OFFSET -2.568260 -7.056230 0.000000 
				CHANNELS 3 Zrotation Yrotation Xrotation
				JOINT RightToeBase
				{
					OFFSET -0.164730 -0.452590 2.363150 
					CHANNELS 3 Zrotation Yrotation Xrotation
					End Site
					{
						OFFSET 0.000000 0.000000 0.000000 
					}
				}
			}
		}
	}
	JOINT Spine
	{
		OFFSET 0.028270 2.035590 -0.193380 
		CHANNELS 3 Zrotation Yrotation Xrotation
		JOINT Spine1
		{
			OFFSET 0.056720 2.048850 -0.042750 
			CHANNELS 3 Zrotation Yrotation Xrotation
			JOINT Neck1
			{
				OFFSET -0.054170 1.746240 0.172020 
				CHANNELS 3 Zrotation Yrotation Xrotation
				JOINT Head
				{
					OFFSET 0.104070 1.761360 -0.123970 
					CHANNELS 3 Zrotation Yrotation Xrotation
					End Site
					{
						OFFSET 0.000000 0.000000 0.000000 
					}
				}
			}
			JOINT LeftArm
			{
				OFFSET 3.362410 1.200890 -0.311210 
				CHANNELS 3 Zrotation Yrotation Xrotation
				JOINT LeftForeArm
				{
					OFFSET 4.983000 -0.000000 -0.000000 
					CHANNELS 3 Zrotation Yrotation Xrotation
					JOINT LeftHand
					{
						OFFSET 3.483560 -0.000000 -0.000000 
						CHANNELS 3 Zrotation Yrotation Xrotation
						JOINT LeftHandIndex1
						{
							OFFSET 0.715260 -0.000000 -0.000000 
							CHANNELS 3 Zrotation Yrotation Xrotation
							End Site
							{
								OFFSET 0.000000 0.000000 0.000000 
							}
						}
					}
				}
			}
			JOINT RightArm
			{
				OFFSET -3.136600 1.374050 -0.404650 
				CHANNELS 3 Zrotation Yrotation Xrotation
				JOINT RightForeArm
				{
					OFFSET -5.241900 -0.000000 -0.000000 
					CHANNELS 3 Zrotation Yrotation Xrotation
					JOINT RightHand
					{
						OFFSET -3.444170 -0.000000 -0.000000 
						CHANNELS 3 Zrotation Yrotation Xrotation
						JOINT RightHandIndex1
						{
							OFFSET -0.622530 -0.000000 -0.000000 
							CHANNELS 3 Zrotation Yrotation Xrotation
							End Site
							{
								OFFSET 0.000000 0.000000 0.000000 
							}
						}
					}
				}
			}
		}
	}
}
MOTION
Frames: 10
Frame Time: 0.041667
19.586691 16.350287 -9.275805 -9.758621 -58.122915 24.060926 -12.026793 -8.677736 -61.034225 6.723551 19.136436 51.139726 0.704294 -1.511219 1.789012 0.132700 -2.347700 -6.467500 29.658020 9.404104 -44.943143 -6.981742 -20.101454 53.821992 0.063969 -5.020337 -15.186408 -0.001000 0.203700 -0.559600 1.337066 -0.365710 0.453398 -0.371578 -0.462381 -3.761089 5.341260 2.131714 4.990217 -0.933400 1.090900 -2.730800 -47.883924 2.992384 61.230246 46.693769 -50.379912 -28.590532 -0.422573 -3.475604 -46.282274 -7.125000 0.000000 0.000000 40.759890 1.071740 63.862430 -52.159482 51.848743 -31.788877 1.106887 2.323215 -19.291013 7.125000 0.000000 0.000000 
19.470610 16.349094 -9.217764 -10.177714 -58.115605 24.417600 -12.442533 -8.246323 -60.323264 5.600817 18.282894 47.630690 0.692702 -1.156344 1.844768 0.167800 -2.638900 -7.274900 30.001282 9.363746 -44.595961 -7.020476 -20.098529 53.943428 0.006553 -4.919310 -15.510267 -0.000700 0.165500 -0.454700 1.327846 -0.382926 0.423219 -0.473309 -0.460194 -3.776174 5.387103 2.199735 5.144007 -0.902000 1.135700 -2.501000 -49.183607 2.574500 59.931065 43.693462 -49.123949 -26.036327 -0.530472 -3.421997 -45.074084 -7.125000 0.000000 0.000000 41.868624 1.158736 63.307281 -50.508598 51.288065 -30.301905 1.166847 2.262754 -18.827842 7.125000 0.000000 0.000000 
19.354311 16.353325 -9.157011 -10.601539 -58.088396 24.788906 -12.789017 -7.854674 -59.562683 4.589659 17.415549 44.329651 0.666004 -0.741406 1.924824 0.195100 -2.844700 -7.846800 30.333386 9.341843 -44.206629 -7.035746 -20.080988 53.995173 -0.045272 -4.835901 -15.821001 -0.000500 0.147200 -0.404400 1.316129 -0.388862 0.391439 -0.627407 -0.450870 -3.786033 5.429462 2.233928 5.343637 -0.880200 1.166700 -2.239300 -50.546362 2.033915 58.511256 40.611726 -47.695903 -23.469732 -0.650673 -3.361057 -43.798901 -7.125000 0.000000 0.000000 43.030451 1.239925 62.737294 -48.783358 50.671167 -28.769206 1.237628 2.202844 -18.410155 7.125000 0.000000 0.000000 
19.238229 16.362654 -9.093763 -11.004043 -58.055309 25.151363 -13.034648 -7.544652 -58.763917 3.705018 16.568465 41.297799 0.622530 -0.270044 2.032845 0.208200 -2.937600 -8.105200 30.635957 9.343074 -43.782084 -7.033323 -20.052958 53.993679 -0.087710 -4.779546 -16.105992 -0.000500 0.150800 -0.414500 1.303287 -0.392453 0.358258 -0.811494 -0.439731 -3.791305 5.466434 2.245998 5.586283 -0.868500 1.190000 -1.951700 -51.963404 1.397403 56.955556 37.524853 -46.110943 -20.968824 -0.788762 -3.293571 -42.539048 -7.125000 0.000000 0.000000 44.200913 1.332303 62.212526 -47.028045 50.006812 -27.228252 1.322012 2.146530 -18.089628 7.125000 0.000000 0.000000 
19.123015 16.376215 -9.028128 -11.361066 -58.024882 25.480864 -13.163412 -7.346835 -57.934465 2.953119 15.773308 38.583533 0.561548 0.252361 2.177618 0.203500 -2.904400 -8.012600 30.895421 9.363586 -43.334781 -7.022760 -20.020599 53.966519 -0.119796 -4.748513 -16.353245 -0.000700 0.167600 -0.460400 1.287729 -0.382320 0.324635 -1.031814 -0.420849 -3.789131 5.500644 2.219991 5.865405 -0.861500 1.197400 -1.644300 -53.398893 0.663780 55.306262 34.520569 -44.400616 -18.608278 -0.949502 -3.222726 -41.387780 -7.125000 0.000000 0.000000 45.344774 1.414834 61.737839 -45.277940 49.306163 -25.716493 1.419317 2.096879 -17.901980 7.125000 0.000000 0.000000 
19.009211 16.392380 -8.960106 -11.656804 -58.005927 25.759393 -13.168681 -7.284091 -57.080835 2.333418 15.056940 36.220341 0.477898 0.844106 2.337721 0.184600 -2.766900 -7.630500 31.103216 9.399221 -42.883887 -7.016624 -19.991981 53.949844 -0.141861 -4.737450 -16.552167 -0.001000 0.201100 -0.552500 1.270416 -0.373275 0.291512 -1.268682 -0.401755 -3.777828 5.534091 2.172764 6.171271 -0.857600 1.196500 -1.326600 -54.832559 -0.124556 53.554977 31.680673 -42.619076 -16.459482 -1.133781 -3.154570 -40.417624 -7.125000 0.000000 0.000000 46.420429 1.508789 61.364706 -43.588218 48.589587 -24.276723 1.524470 2.058453 -17.880007 7.125000 0.000000 0.000000 
18.897035 16.409413 -8.889698 -11.893107 -58.008583 25.982548 -13.067194 -7.343928 -56.211601 1.838441 14.436669 34.223271 0.370640 1.501720 2.500391 0.159100 -2.569800 -7.083300 31.262740 9.450695 -42.448135 -7.029829 -19.977412 53.988517 -0.150882 -4.753540 -16.693902 -0.001800 0.277000 -0.761100 1.254029 -0.375355 0.259983 -1.487923 -0.388862 -3.758607 5.570482 2.119951 6.489851 -0.847500 1.194300 -1.013300 -56.257535 -0.915496 51.698993 29.079857 -40.839445 -14.578576 -1.341024 -3.099205 -39.692152 -7.125000 0.000000 0.000000 47.376788 1.627443 61.131033 -42.005719 47.878414 -22.944427 1.627347 2.035216 -18.037075 7.125000 0.000000 0.000000 
18.786595 16.425794 -8.817336 -12.069486 -58.039365 26.138446 -12.888343 -7.504003 -55.329034 1.456150 13.921773 32.591452 0.243719 2.205666 2.666914 0.135500 -2.372500 -6.536300 31.376118 9.517754 -42.047594 -7.080454 -19.988824 54.135574 -0.146389 -4.793293 -16.766669 -0.004100 0.412100 -1.132400 1.239050 -0.398069 0.230302 -1.673920 -0.386471 -3.742322 5.611187 2.075457 6.804769 -0.829000 1.196300 -0.722500 -57.640563 -1.646798 49.766975 26.782291 -39.146608 -13.002948 -1.561632 -3.065096 -39.262897 -7.125000 0.000000 0.000000 48.183588 1.768523 61.061985 -40.589756 47.205753 -21.761815 1.716160 2.031511 -18.370670 7.125000 0.000000 0.000000 
18.677999 16.440440 -8.743348 -12.197691 -58.098633 26.240182 -12.670145 -7.721998 -54.443234 1.171974 13.514874 31.314212 0.110535 2.898472 2.849090 0.118200 -2.216200 -6.103400 31.453113 9.603223 -41.712681 -7.187993 -20.040583 54.449094 -0.123718 -4.864317 -16.744311 -0.009800 0.637600 -1.752200 1.226770 -0.437764 0.227797 -1.825704 -0.392686 -3.710749 5.654871 2.040120 7.100339 -0.802500 1.201200 -0.469700 -58.930521 -2.265336 47.843297 24.855787 -37.642037 -11.758008 -1.782057 -3.054693 -39.190259 -7.125000 0.000000 0.000000 48.830895 1.911253 61.131913 -39.376547 46.603796 -20.756655 1.779512 2.048763 -18.840821 7.125000 0.000000 0.000000 
18.571464 16.453459 -8.668817 -12.292418 -58.189329 26.277767 -12.457188 -7.957505 -53.563341 0.973664 13.212495 30.377217 -0.017398 3.536548 3.068601 0.106000 -2.099100 -5.779700 31.491266 9.725166 -41.473230 -7.373147 -20.145164 54.987325 -0.074200 -4.980651 -16.581282 -0.022800 0.975600 -2.681700 1.214887 -0.503698 0.209463 -1.927411 -0.412149 -3.690632 5.697591 2.034947 7.354346 -0.769300 1.217600 -0.269400 -60.125807 -2.744953 45.968067 23.342004 -36.405550 -10.843054 -1.988662 -3.065368 -39.493545 -7.125000 0.000000 0.000000 49.314418 2.089124 61.331985 -38.406307 46.096631 -19.946663 1.809596 2.083264 -19.399955 7.125000 0.000000 0.000000 
